<svg xmlns="http://www.w3.org/2000/svg" xmlns:xlink="http://www.w3.org/1999/xlink" width="124" zoomAndPan="magnify" viewBox="0 0 93 41.25" height="55" preserveAspectRatio="xMidYMid meet" version="1.0"><defs><g/><clipPath id="45a059a4a8"><path d="M 50.976562 17.976562 L 56.679688 17.976562 L 56.679688 19.984375 L 50.976562 19.984375 Z M 50.976562 17.976562 " clip-rule="nonzero"/></clipPath><clipPath id="2dcd25827b"><path d="M 51.980469 17.976562 L 55.675781 17.976562 C 55.953125 17.976562 56.191406 18.074219 56.386719 18.269531 C 56.582031 18.46875 56.679688 18.703125 56.679688 18.980469 C 56.679688 19.257812 56.582031 19.496094 56.386719 19.691406 C 56.191406 19.886719 55.953125 19.984375 55.675781 19.984375 L 51.980469 19.984375 C 51.703125 19.984375 51.464844 19.886719 51.269531 19.691406 C 51.074219 19.496094 50.976562 19.257812 50.976562 18.980469 C 50.976562 18.703125 51.074219 18.46875 51.269531 18.269531 C 51.464844 18.074219 51.703125 17.976562 51.980469 17.976562 Z M 51.980469 17.976562 " clip-rule="nonzero"/></clipPath><clipPath id="7435fcfcdc"><path d="M 69.0625 17.976562 L 82.929688 17.976562 L 82.929688 19.984375 L 69.0625 19.984375 Z M 69.0625 17.976562 " clip-rule="nonzero"/></clipPath><clipPath id="5d0cd2699c"><path d="M 70.066406 17.976562 C 69.789062 17.976562 69.554688 18.074219 69.355469 18.269531 C 69.160156 18.46875 69.0625 18.703125 69.0625 18.980469 C 69.0625 19.257812 69.160156 19.496094 69.355469 19.691406 C 69.554688 19.886719 69.789062 19.984375 70.066406 19.984375 L 81.925781 19.984375 C 82.203125 19.984375 82.441406 19.886719 82.636719 19.691406 C 82.832031 19.496094 82.929688 19.257812 82.929688 18.980469 C 82.929688 18.703125 82.832031 18.46875 82.636719 18.269531 C 82.441406 18.074219 82.203125 17.976562 81.925781 17.976562 Z M 70.066406 17.976562 " clip-rule="nonzero"/></clipPath><clipPath id="7986842784"><path d="M 71.0625 15.296875 L 84.734375 15.296875 L 84.734375 17.304688 L 71.0625 17.304688 Z M 71.0625 15.296875 " clip-rule="nonzero"/></clipPath><clipPath id="dcacb8995f"><path d="M 72.066406 15.296875 C 71.789062 15.296875 71.550781 15.394531 71.355469 15.589844 C 71.160156 15.785156 71.0625 16.023438 71.0625 16.300781 C 71.0625 16.574219 71.160156 16.8125 71.355469 17.007812 C 71.550781 17.203125 71.789062 17.304688 72.066406 17.304688 L 83.730469 17.304688 C 84.007812 17.304688 84.242188 17.203125 84.441406 17.007812 C 84.636719 16.8125 84.734375 16.574219 84.734375 16.300781 C 84.734375 16.023438 84.636719 15.785156 84.441406 15.589844 C 84.242188 15.394531 84.007812 15.296875 83.730469 15.296875 Z M 72.066406 15.296875 " clip-rule="nonzero"/></clipPath><clipPath id="2593424b07"><path d="M 72.875 12.613281 L 86.703125 12.613281 L 86.703125 14.621094 L 72.875 14.621094 Z M 72.875 12.613281 " clip-rule="nonzero"/></clipPath><clipPath id="ad416ba046"><path d="M 73.878906 12.613281 C 73.601562 12.613281 73.367188 12.710938 73.167969 12.90625 C 72.972656 13.105469 72.875 13.339844 72.875 13.617188 C 72.875 13.894531 72.972656 14.132812 73.167969 14.328125 C 73.367188 14.523438 73.601562 14.621094 73.878906 14.621094 L 85.699219 14.621094 C 85.976562 14.621094 86.214844 14.523438 86.410156 14.328125 C 86.605469 14.132812 86.703125 13.894531 86.703125 13.617188 C 86.703125 13.339844 86.605469 13.105469 86.410156 12.90625 C 86.214844 12.710938 85.976562 12.613281 85.699219 12.613281 Z M 73.878906 12.613281 " clip-rule="nonzero"/></clipPath><clipPath id="75448ebb44"><path d="M 74.921875 9.933594 L 88.542969 9.933594 L 88.542969 11.941406 L 74.921875 11.941406 Z M 74.921875 9.933594 " clip-rule="nonzero"/></clipPath><clipPath id="7c7b9fd762"><path d="M 75.925781 9.933594 C 75.648438 9.933594 75.410156 10.03125 75.214844 10.226562 C 75.019531 10.421875 74.921875 10.660156 74.921875 10.9375 C 74.921875 11.214844 75.019531 11.449219 75.214844 11.644531 C 75.410156 11.84375 75.648438 11.941406 75.925781 11.941406 L 87.535156 11.941406 C 87.8125 11.941406 88.050781 11.84375 88.246094 11.644531 C 88.441406 11.449219 88.539062 11.214844 88.539062 10.9375 C 88.539062 10.660156 88.441406 10.421875 88.246094 10.226562 C 88.050781 10.03125 87.8125 9.933594 87.535156 9.933594 Z M 75.925781 9.933594 " clip-rule="nonzero"/></clipPath><clipPath id="cc8292d2d7"><path d="M 76.734375 7.25 L 90.503906 7.25 L 90.503906 9.257812 L 76.734375 9.257812 Z M 76.734375 7.25 " clip-rule="nonzero"/></clipPath><clipPath id="63b637dc34"><path d="M 77.738281 7.25 C 77.460938 7.25 77.222656 7.347656 77.027344 7.542969 C 76.832031 7.738281 76.734375 7.976562 76.734375 8.253906 C 76.734375 8.53125 76.832031 8.765625 77.027344 8.960938 C 77.222656 9.15625 77.460938 9.257812 77.738281 9.257812 L 89.5 9.257812 C 89.777344 9.257812 90.015625 9.15625 90.210938 8.960938 C 90.40625 8.765625 90.503906 8.53125 90.503906 8.253906 C 90.503906 7.976562 90.40625 7.738281 90.210938 7.542969 C 90.015625 7.347656 89.777344 7.25 89.5 7.25 Z M 77.738281 7.25 " clip-rule="nonzero"/></clipPath><clipPath id="506f91a29d"><path d="M 78.734375 4.570312 L 91.242188 4.570312 L 91.242188 6.578125 L 78.734375 6.578125 Z M 78.734375 4.570312 " clip-rule="nonzero"/></clipPath><clipPath id="55c6b2aa59"><path d="M 79.738281 4.570312 C 79.460938 4.570312 79.222656 4.667969 79.027344 4.863281 C 78.832031 5.058594 78.734375 5.296875 78.734375 5.574219 C 78.734375 5.851562 78.832031 6.085938 79.027344 6.28125 C 79.222656 6.480469 79.460938 6.578125 79.738281 6.578125 L 90.238281 6.578125 C 90.515625 6.578125 90.75 6.480469 90.949219 6.28125 C 91.144531 6.085938 91.242188 5.851562 91.242188 5.574219 C 91.242188 5.296875 91.144531 5.058594 90.949219 4.863281 C 90.75 4.667969 90.515625 4.570312 90.238281 4.570312 Z M 79.738281 4.570312 " clip-rule="nonzero"/></clipPath><clipPath id="3bf1eb4bda"><path d="M 80.625 1.886719 L 90.195312 1.886719 L 90.195312 3.894531 L 80.625 3.894531 Z M 80.625 1.886719 " clip-rule="nonzero"/></clipPath><clipPath id="e9de8d848d"><path d="M 81.628906 1.886719 C 81.351562 1.886719 81.117188 1.984375 80.917969 2.179688 C 80.722656 2.378906 80.625 2.613281 80.625 2.890625 C 80.625 3.167969 80.722656 3.40625 80.917969 3.601562 C 81.117188 3.796875 81.351562 3.894531 81.628906 3.894531 L 89.191406 3.894531 C 89.46875 3.894531 89.703125 3.796875 89.898438 3.601562 C 90.09375 3.40625 90.195312 3.167969 90.195312 2.890625 C 90.195312 2.613281 90.09375 2.378906 89.898438 2.179688 C 89.703125 1.984375 89.46875 1.886719 89.191406 1.886719 Z M 81.628906 1.886719 " clip-rule="nonzero"/></clipPath><clipPath id="f608ae076e"><path d="M 48.855469 20.660156 L 60.085938 20.660156 L 60.085938 22.667969 L 48.855469 22.667969 Z M 48.855469 20.660156 " clip-rule="nonzero"/></clipPath><clipPath id="35ed9f0862"><path d="M 49.859375 20.660156 C 49.582031 20.660156 49.347656 20.757812 49.152344 20.953125 C 48.953125 21.148438 48.855469 21.386719 48.855469 21.664062 C 48.855469 21.941406 48.953125 22.175781 49.152344 22.371094 C 49.347656 22.570312 49.582031 22.667969 49.859375 22.667969 L 59.085938 22.667969 C 59.363281 22.667969 59.601562 22.570312 59.796875 22.371094 C 59.992188 22.175781 60.089844 21.941406 60.089844 21.664062 C 60.089844 21.386719 59.992188 21.148438 59.796875 20.953125 C 59.601562 20.757812 59.363281 20.660156 59.085938 20.660156 Z M 49.859375 20.660156 " clip-rule="nonzero"/></clipPath><clipPath id="ae12d72de2"><path d="M 67.085938 20.660156 L 80.898438 20.660156 L 80.898438 22.667969 L 67.085938 22.667969 Z M 67.085938 20.660156 " clip-rule="nonzero"/></clipPath><clipPath id="813912c3ea"><path d="M 68.089844 20.660156 C 67.8125 20.660156 67.578125 20.757812 67.378906 20.953125 C 67.183594 21.148438 67.085938 21.386719 67.085938 21.664062 C 67.085938 21.941406 67.183594 22.175781 67.378906 22.371094 C 67.578125 22.570312 67.8125 22.667969 68.089844 22.667969 L 79.894531 22.667969 C 80.171875 22.667969 80.40625 22.570312 80.605469 22.371094 C 80.800781 22.175781 80.898438 21.941406 80.898438 21.664062 C 80.898438 21.386719 80.800781 21.148438 80.605469 20.953125 C 80.40625 20.757812 80.171875 20.660156 79.894531 20.660156 Z M 68.089844 20.660156 " clip-rule="nonzero"/></clipPath><clipPath id="21c6ceb604"><path d="M 48.855469 23.339844 L 63.542969 23.339844 L 63.542969 25.347656 L 48.855469 25.347656 Z M 48.855469 23.339844 " clip-rule="nonzero"/></clipPath><clipPath id="24b7df78b0"><path d="M 49.859375 23.339844 C 49.582031 23.339844 49.347656 23.4375 49.152344 23.632812 C 48.953125 23.828125 48.855469 24.066406 48.855469 24.34375 C 48.855469 24.621094 48.953125 24.859375 49.152344 25.054688 C 49.347656 25.25 49.582031 25.347656 49.859375 25.347656 L 62.539062 25.347656 C 62.816406 25.347656 63.050781 25.25 63.246094 25.054688 C 63.445312 24.859375 63.542969 24.621094 63.542969 24.34375 C 63.542969 24.066406 63.445312 23.828125 63.246094 23.632812 C 63.050781 23.4375 62.816406 23.339844 62.539062 23.339844 Z M 49.859375 23.339844 " clip-rule="nonzero"/></clipPath><clipPath id="9dd3448190"><path d="M 65.210938 23.339844 L 78.96875 23.339844 L 78.96875 25.347656 L 65.210938 25.347656 Z M 65.210938 23.339844 " clip-rule="nonzero"/></clipPath><clipPath id="37fe7b6b74"><path d="M 66.214844 23.339844 C 65.9375 23.339844 65.699219 23.4375 65.503906 23.632812 C 65.308594 23.828125 65.210938 24.066406 65.210938 24.34375 C 65.210938 24.621094 65.308594 24.859375 65.503906 25.054688 C 65.699219 25.25 65.9375 25.347656 66.214844 25.347656 L 77.960938 25.347656 C 78.238281 25.347656 78.476562 25.25 78.671875 25.054688 C 78.867188 24.859375 78.964844 24.621094 78.964844 24.34375 C 78.964844 24.066406 78.867188 23.828125 78.671875 23.632812 C 78.476562 23.4375 78.238281 23.339844 77.960938 23.339844 Z M 66.214844 23.339844 " clip-rule="nonzero"/></clipPath><clipPath id="69e2f9ac5b"><path d="M 50.917969 26.019531 L 76.882812 26.019531 L 76.882812 28.03125 L 50.917969 28.03125 Z M 50.917969 26.019531 " clip-rule="nonzero"/></clipPath><clipPath id="7a24f9a7da"><path d="M 51.921875 26.019531 C 51.644531 26.019531 51.40625 26.121094 51.210938 26.316406 C 51.015625 26.511719 50.917969 26.75 50.917969 27.023438 C 50.917969 27.300781 51.015625 27.539062 51.210938 27.734375 C 51.40625 27.929688 51.644531 28.03125 51.921875 28.03125 L 75.878906 28.03125 C 76.15625 28.03125 76.394531 27.929688 76.589844 27.734375 C 76.785156 27.539062 76.882812 27.300781 76.882812 27.023438 C 76.882812 26.75 76.785156 26.511719 76.589844 26.316406 C 76.394531 26.121094 76.15625 26.019531 75.878906 26.019531 Z M 51.921875 26.019531 " clip-rule="nonzero"/></clipPath><clipPath id="47a1d0aed9"><path d="M 53.128906 28.703125 L 75.027344 28.703125 L 75.027344 30.710938 L 53.128906 30.710938 Z M 53.128906 28.703125 " clip-rule="nonzero"/></clipPath><clipPath id="b976eb52d3"><path d="M 54.132812 28.703125 C 53.855469 28.703125 53.617188 28.800781 53.421875 28.996094 C 53.226562 29.195312 53.128906 29.429688 53.128906 29.707031 C 53.128906 29.984375 53.226562 30.222656 53.421875 30.417969 C 53.617188 30.613281 53.855469 30.710938 54.132812 30.710938 L 74.023438 30.710938 C 74.300781 30.710938 74.535156 30.613281 74.734375 30.417969 C 74.929688 30.222656 75.027344 29.984375 75.027344 29.707031 C 75.027344 29.429688 74.929688 29.195312 74.734375 28.996094 C 74.535156 28.800781 74.300781 28.703125 74.023438 28.703125 Z M 54.132812 28.703125 " clip-rule="nonzero"/></clipPath><clipPath id="9b7e62ddd5"><path d="M 55.566406 31.382812 L 73.15625 31.382812 L 73.15625 33.390625 L 55.566406 33.390625 Z M 55.566406 31.382812 " clip-rule="nonzero"/></clipPath><clipPath id="7ccc1c4a99"><path d="M 56.570312 31.382812 C 56.292969 31.382812 56.058594 31.480469 55.863281 31.679688 C 55.667969 31.875 55.566406 32.109375 55.566406 32.386719 C 55.566406 32.664062 55.667969 32.902344 55.863281 33.097656 C 56.058594 33.292969 56.292969 33.390625 56.570312 33.390625 L 72.152344 33.390625 C 72.425781 33.390625 72.664062 33.292969 72.859375 33.097656 C 73.054688 32.902344 73.15625 32.664062 73.15625 32.386719 C 73.15625 32.109375 73.054688 31.875 72.859375 31.679688 C 72.664062 31.480469 72.425781 31.382812 72.152344 31.382812 Z M 56.570312 31.382812 " clip-rule="nonzero"/></clipPath><clipPath id="ed872e21d8"><path d="M 57.886719 34.066406 L 71.238281 34.066406 L 71.238281 36.074219 L 57.886719 36.074219 Z M 57.886719 34.066406 " clip-rule="nonzero"/></clipPath><clipPath id="67a7376498"><path d="M 58.886719 34.066406 C 58.609375 34.066406 58.375 34.164062 58.179688 34.359375 C 57.980469 34.554688 57.882812 34.792969 57.882812 35.070312 C 57.882812 35.347656 57.980469 35.582031 58.179688 35.78125 C 58.375 35.976562 58.609375 36.074219 58.886719 36.074219 L 70.230469 36.074219 C 70.507812 36.074219 70.746094 35.976562 70.941406 35.78125 C 71.136719 35.582031 71.234375 35.347656 71.234375 35.070312 C 71.234375 34.792969 71.136719 34.554688 70.941406 34.359375 C 70.746094 34.164062 70.507812 34.066406 70.230469 34.066406 Z M 58.886719 34.066406 " clip-rule="nonzero"/></clipPath><clipPath id="59b6f02cae"><path d="M 60.308594 36.746094 L 69.203125 36.746094 L 69.203125 38.753906 L 60.308594 38.753906 Z M 60.308594 36.746094 " clip-rule="nonzero"/></clipPath><clipPath id="73d7f0065e"><path d="M 61.3125 36.746094 C 61.035156 36.746094 60.796875 36.847656 60.601562 37.042969 C 60.40625 37.238281 60.308594 37.472656 60.308594 37.75 C 60.308594 38.027344 60.40625 38.265625 60.601562 38.460938 C 60.796875 38.65625 61.035156 38.753906 61.3125 38.753906 L 68.195312 38.753906 C 68.472656 38.753906 68.710938 38.65625 68.90625 38.460938 C 69.101562 38.265625 69.199219 38.027344 69.199219 37.75 C 69.199219 37.472656 69.101562 37.238281 68.90625 37.042969 C 68.710938 36.847656 68.472656 36.746094 68.195312 36.746094 Z M 61.3125 36.746094 " clip-rule="nonzero"/></clipPath><clipPath id="62741099d3"><path d="M 45 6.550781 L 47 6.550781 L 47 38.226562 L 45 38.226562 Z M 45 6.550781 " clip-rule="nonzero"/></clipPath></defs><g clip-path="url(#45a059a4a8)"><g clip-path="url(#2dcd25827b)"><path fill="#35a29f" d="M 50.976562 17.976562 L 50.976562 19.984375 L 56.679688 19.984375 L 56.679688 17.976562 Z M 50.976562 17.976562 " fill-opacity="1" fill-rule="nonzero"/></g></g><g clip-path="url(#7435fcfcdc)"><g clip-path="url(#5d0cd2699c)"><path fill="#35a29f" d="M 69.0625 17.976562 L 69.0625 19.984375 L 82.929688 19.984375 L 82.929688 17.976562 Z M 69.0625 17.976562 " fill-opacity="1" fill-rule="nonzero"/></g></g><g clip-path="url(#7986842784)"><g clip-path="url(#dcacb8995f)"><path fill="#35a29f" d="M 71.0625 15.296875 L 71.0625 17.304688 L 84.734375 17.304688 L 84.734375 15.296875 Z M 71.0625 15.296875 " fill-opacity="1" fill-rule="nonzero"/></g></g><g clip-path="url(#2593424b07)"><g clip-path="url(#ad416ba046)"><path fill="#35a29f" d="M 72.875 12.613281 L 72.875 14.621094 L 86.703125 14.621094 L 86.703125 12.613281 Z M 72.875 12.613281 " fill-opacity="1" fill-rule="nonzero"/></g></g><g clip-path="url(#75448ebb44)"><g clip-path="url(#7c7b9fd762)"><path fill="#35a29f" d="M 74.921875 9.933594 L 74.921875 11.941406 L 88.539062 11.941406 L 88.539062 9.933594 Z M 74.921875 9.933594 " fill-opacity="1" fill-rule="nonzero"/></g></g><g clip-path="url(#cc8292d2d7)"><g clip-path="url(#63b637dc34)"><path fill="#35a29f" d="M 76.734375 7.25 L 76.734375 9.257812 L 90.503906 9.257812 L 90.503906 7.25 Z M 76.734375 7.25 " fill-opacity="1" fill-rule="nonzero"/></g></g><g clip-path="url(#506f91a29d)"><g clip-path="url(#55c6b2aa59)"><path fill="#35a29f" d="M 78.734375 4.570312 L 78.734375 6.578125 L 91.242188 6.578125 L 91.242188 4.570312 Z M 78.734375 4.570312 " fill-opacity="1" fill-rule="nonzero"/></g></g><g clip-path="url(#3bf1eb4bda)"><g clip-path="url(#e9de8d848d)"><path fill="#35a29f" d="M 80.625 1.886719 L 80.625 3.894531 L 90.195312 3.894531 L 90.195312 1.886719 Z M 80.625 1.886719 " fill-opacity="1" fill-rule="nonzero"/></g></g><g clip-path="url(#f608ae076e)"><g clip-path="url(#35ed9f0862)"><path fill="#35a29f" d="M 48.855469 20.660156 L 48.855469 22.667969 L 60.085938 22.667969 L 60.085938 20.660156 Z M 48.855469 20.660156 " fill-opacity="1" fill-rule="nonzero"/></g></g><g clip-path="url(#ae12d72de2)"><g clip-path="url(#813912c3ea)"><path fill="#35a29f" d="M 67.085938 20.660156 L 67.085938 22.667969 L 80.898438 22.667969 L 80.898438 20.660156 Z M 67.085938 20.660156 " fill-opacity="1" fill-rule="nonzero"/></g></g><g clip-path="url(#21c6ceb604)"><g clip-path="url(#24b7df78b0)"><path fill="#35a29f" d="M 48.855469 23.339844 L 48.855469 25.347656 L 63.542969 25.347656 L 63.542969 23.339844 Z M 48.855469 23.339844 " fill-opacity="1" fill-rule="nonzero"/></g></g><g clip-path="url(#9dd3448190)"><g clip-path="url(#37fe7b6b74)"><path fill="#35a29f" d="M 65.210938 23.339844 L 65.210938 25.347656 L 78.964844 25.347656 L 78.964844 23.339844 Z M 65.210938 23.339844 " fill-opacity="1" fill-rule="nonzero"/></g></g><g clip-path="url(#69e2f9ac5b)"><g clip-path="url(#7a24f9a7da)"><path fill="#35a29f" d="M 50.917969 26.019531 L 50.917969 28.03125 L 76.882812 28.03125 L 76.882812 26.019531 Z M 50.917969 26.019531 " fill-opacity="1" fill-rule="nonzero"/></g></g><g clip-path="url(#47a1d0aed9)"><g clip-path="url(#b976eb52d3)"><path fill="#35a29f" d="M 53.128906 28.703125 L 53.128906 30.710938 L 75.027344 30.710938 L 75.027344 28.703125 Z M 53.128906 28.703125 " fill-opacity="1" fill-rule="nonzero"/></g></g><g clip-path="url(#9b7e62ddd5)"><g clip-path="url(#7ccc1c4a99)"><path fill="#35a29f" d="M 55.566406 31.382812 L 55.566406 33.390625 L 73.15625 33.390625 L 73.15625 31.382812 Z M 55.566406 31.382812 " fill-opacity="1" fill-rule="nonzero"/></g></g><g clip-path="url(#ed872e21d8)"><g clip-path="url(#67a7376498)"><path fill="#35a29f" d="M 57.886719 34.066406 L 57.886719 36.074219 L 71.234375 36.074219 L 71.234375 34.066406 Z M 57.886719 34.066406 " fill-opacity="1" fill-rule="nonzero"/></g></g><g clip-path="url(#59b6f02cae)"><g clip-path="url(#73d7f0065e)"><path fill="#35a29f" d="M 60.308594 36.746094 L 60.308594 38.753906 L 69.199219 38.753906 L 69.199219 36.746094 Z M 60.308594 36.746094 " fill-opacity="1" fill-rule="nonzero"/></g></g><g fill="#3a3a3a" fill-opacity="1"><g transform="translate(3.327012, 18.263747)"><g><path d="M 0.46875 0 Z M 12.40625 -1.4375 L 12.40625 0 L 3.84375 0 C 3.15625 0 2.570312 -0.0507812 2.09375 -0.15625 C 1.625 -0.257812 1.234375 -0.476562 0.921875 -0.8125 C 0.617188 -1.144531 0.46875 -1.632812 0.46875 -2.28125 C 0.46875 -2.625 0.503906 -3.007812 0.578125 -3.4375 C 0.648438 -3.863281 0.738281 -4.257812 0.84375 -4.625 L 2.109375 -4.5625 C 2.054688 -4.125 2.023438 -3.847656 2.015625 -3.734375 C 1.941406 -3.148438 1.90625 -2.785156 1.90625 -2.640625 C 1.90625 -1.835938 2.488281 -1.4375 3.65625 -1.4375 L 5.96875 -1.4375 C 5.832031 -1.914062 5.765625 -2.457031 5.765625 -3.0625 C 5.765625 -3.78125 5.875 -4.34375 6.09375 -4.75 C 6.320312 -5.15625 6.664062 -5.441406 7.125 -5.609375 C 7.582031 -5.785156 8.1875 -5.875 8.9375 -5.875 C 9.59375 -5.875 10.164062 -5.847656 10.65625 -5.796875 L 11.28125 -5.71875 L 11.28125 -1.4375 Z M 7.375 -2.765625 C 7.375 -2.472656 7.394531 -2.234375 7.4375 -2.046875 C 7.476562 -1.859375 7.53125 -1.65625 7.59375 -1.4375 L 9.703125 -1.4375 L 9.703125 -4.4375 C 9.359375 -4.46875 9.085938 -4.484375 8.890625 -4.484375 C 8.460938 -4.484375 8.144531 -4.429688 7.9375 -4.328125 C 7.726562 -4.234375 7.582031 -4.066406 7.5 -3.828125 C 7.414062 -3.597656 7.375 -3.242188 7.375 -2.765625 Z M 8.40625 -8.515625 L 9.84375 -8.515625 L 9.84375 -6.984375 L 8.40625 -6.984375 Z M 8.40625 -8.515625 "/></g></g></g><g fill="#3a3a3a" fill-opacity="1"><g transform="translate(15.489861, 18.263747)"><g><path d="M 0 -1.4375 L 2.9375 -1.4375 L 2.9375 0 L 0 0 Z M 0 -1.4375 "/></g></g></g><g fill="#3a3a3a" fill-opacity="1"><g transform="translate(18.188777, 18.263747)"><g><path d="M 0 -1.4375 L 2.9375 -1.4375 L 2.9375 0 L 0 0 Z M 0 -1.4375 "/></g></g></g><g fill="#3a3a3a" fill-opacity="1"><g transform="translate(20.887692, 18.263747)"><g><path d="M 0 0 Z M 3.328125 -5.890625 L 3.328125 0 L 0 0 L 0 -1.4375 L 1.75 -1.4375 L 1.75 -5.890625 Z M 1.0625 -8.46875 L 2.28125 -8.46875 L 2.28125 -7 L 1.0625 -7 Z M 2.859375 -8.46875 L 4.0625 -8.46875 L 4.0625 -7 L 2.859375 -7 Z M 2.859375 -8.46875 "/></g></g></g><g fill="#3a3a3a" fill-opacity="1"><g transform="translate(24.800543, 18.263747)"><g><path d="M 3.671875 -1.4375 L 3.671875 0 L 0.9375 0 L 0.9375 -8.25 L 2.515625 -8.25 L 2.515625 -1.4375 Z M 3.671875 -1.4375 "/></g></g></g><g fill="#3a3a3a" fill-opacity="1"><g transform="translate(28.230176, 18.263747)"><g><path d="M 8.390625 -1.4375 L 8.390625 0 L 0 0 L 0 -1.4375 L 5.25 -1.4375 L 5.25 -2.890625 C 5.25 -3.296875 5.148438 -3.628906 4.953125 -3.890625 C 4.765625 -4.148438 4.535156 -4.28125 4.265625 -4.28125 L 1.109375 -4.28125 L 0.296875 -5.375 L 1 -6.75 C 1.15625 -7.0625 1.363281 -7.394531 1.625 -7.75 C 1.894531 -8.113281 2.148438 -8.425781 2.390625 -8.6875 L 3.5625 -8.015625 C 3.144531 -7.441406 2.757812 -6.8125 2.40625 -6.125 L 2.1875 -5.71875 L 4.53125 -5.71875 C 5.15625 -5.71875 5.632812 -5.546875 5.96875 -5.203125 C 6.3125 -4.867188 6.539062 -4.488281 6.65625 -4.0625 C 6.769531 -3.632812 6.828125 -3.238281 6.828125 -2.875 L 6.828125 -1.4375 Z M 8.390625 -1.4375 "/></g></g></g><g fill="#3a3a3a" fill-opacity="1"><g transform="translate(36.37409, 18.263747)"><g><path d="M 0 -1.4375 L 2.9375 -1.4375 L 2.9375 0 L 0 0 Z M 0 -1.4375 "/></g></g></g><g fill="#3a3a3a" fill-opacity="1"><g transform="translate(39.073006, 18.263747)"><g><path d="M 0 0 Z M 3.328125 -5.890625 L 3.328125 0 L 0 0 L 0 -1.4375 L 1.75 -1.4375 L 1.75 -5.890625 Z M 1.0625 -8.46875 L 2.28125 -8.46875 L 2.28125 -7 L 1.0625 -7 Z M 2.859375 -8.46875 L 4.0625 -8.46875 L 4.0625 -7 L 2.859375 -7 Z M 2.859375 -8.46875 "/></g></g></g><g fill="#3a3a3a" fill-opacity="1"><g transform="translate(4.208167, 33.761246)"><g><path d="M 1.90625 -5.46875 L 0.125 -5.46875 L 0.125 -6.671875 L 5.03125 -6.671875 L 5.03125 -5.46875 L 3.265625 -5.46875 L 3.265625 0 L 1.90625 0 Z M 1.90625 -5.46875 "/></g></g></g><g fill="#3a3a3a" fill-opacity="1"><g transform="translate(10.305322, 33.761246)"><g><path d="M 1.8125 0.125 C 0.789062 0.125 0.28125 -0.410156 0.28125 -1.484375 C 0.28125 -1.992188 0.414062 -2.363281 0.6875 -2.59375 C 0.957031 -2.820312 1.394531 -2.957031 2 -3 L 3.046875 -3.078125 L 3.046875 -3.375 C 3.046875 -3.570312 3 -3.707031 2.90625 -3.78125 C 2.820312 -3.863281 2.675781 -3.90625 2.46875 -3.90625 C 2.257812 -3.90625 1.960938 -3.894531 1.578125 -3.875 C 1.203125 -3.863281 0.882812 -3.847656 0.625 -3.828125 L 0.59375 -4.734375 C 1.300781 -4.929688 1.96875 -5.03125 2.59375 -5.03125 C 3.21875 -5.03125 3.664062 -4.894531 3.9375 -4.625 C 4.21875 -4.363281 4.359375 -3.945312 4.359375 -3.375 L 4.359375 -1.328125 C 4.378906 -1.171875 4.410156 -1.0625 4.453125 -1 C 4.492188 -0.9375 4.570312 -0.894531 4.6875 -0.875 L 4.65625 0.125 C 4.3125 0.125 4.039062 0.0976562 3.84375 0.046875 C 3.644531 0.00390625 3.445312 -0.0820312 3.25 -0.21875 C 2.769531 0.0078125 2.289062 0.125 1.8125 0.125 Z M 2.09375 -0.953125 C 2.34375 -0.953125 2.613281 -0.988281 2.90625 -1.0625 L 3.046875 -1.109375 L 3.046875 -2.15625 L 2.15625 -2.078125 C 1.789062 -2.046875 1.609375 -1.847656 1.609375 -1.484375 C 1.609375 -1.128906 1.769531 -0.953125 2.09375 -0.953125 Z M 2.09375 -0.953125 "/></g></g></g><g fill="#3a3a3a" fill-opacity="1"><g transform="translate(16.255215, 33.761246)"><g><path d="M 0.609375 -6.875 L 1.921875 -6.875 L 1.921875 -2.96875 L 2.421875 -3.046875 L 3.390625 -4.90625 L 4.859375 -4.90625 L 3.59375 -2.578125 L 4.9375 0 L 3.453125 0 L 2.46875 -1.90625 L 1.921875 -1.828125 L 1.921875 0 L 0.609375 0 Z M 0.609375 -6.875 "/></g></g></g><g fill="#3a3a3a" fill-opacity="1"><g transform="translate(22.244369, 33.761246)"><g><path d="M 1.8125 0.125 C 0.789062 0.125 0.28125 -0.410156 0.28125 -1.484375 C 0.28125 -1.992188 0.414062 -2.363281 0.6875 -2.59375 C 0.957031 -2.820312 1.394531 -2.957031 2 -3 L 3.046875 -3.078125 L 3.046875 -3.375 C 3.046875 -3.570312 3 -3.707031 2.90625 -3.78125 C 2.820312 -3.863281 2.675781 -3.90625 2.46875 -3.90625 C 2.257812 -3.90625 1.960938 -3.894531 1.578125 -3.875 C 1.203125 -3.863281 0.882812 -3.847656 0.625 -3.828125 L 0.59375 -4.734375 C 1.300781 -4.929688 1.96875 -5.03125 2.59375 -5.03125 C 3.21875 -5.03125 3.664062 -4.894531 3.9375 -4.625 C 4.21875 -4.363281 4.359375 -3.945312 4.359375 -3.375 L 4.359375 -1.328125 C 4.378906 -1.171875 4.410156 -1.0625 4.453125 -1 C 4.492188 -0.9375 4.570312 -0.894531 4.6875 -0.875 L 4.65625 0.125 C 4.3125 0.125 4.039062 0.0976562 3.84375 0.046875 C 3.644531 0.00390625 3.445312 -0.0820312 3.25 -0.21875 C 2.769531 0.0078125 2.289062 0.125 1.8125 0.125 Z M 2.09375 -0.953125 C 2.34375 -0.953125 2.613281 -0.988281 2.90625 -1.0625 L 3.046875 -1.109375 L 3.046875 -2.15625 L 2.15625 -2.078125 C 1.789062 -2.046875 1.609375 -1.847656 1.609375 -1.484375 C 1.609375 -1.128906 1.769531 -0.953125 2.09375 -0.953125 Z M 2.09375 -0.953125 "/></g></g></g><g fill="#3a3a3a" fill-opacity="1"><g transform="translate(28.194261, 33.761246)"><g><path d="M 2.28125 0.125 C 1.894531 0.125 1.597656 0.0664062 1.390625 -0.046875 C 1.179688 -0.171875 1.03125 -0.367188 0.9375 -0.640625 C 0.84375 -0.910156 0.796875 -1.28125 0.796875 -1.75 L 0.796875 -3.78125 L 0.21875 -3.78125 L 0.21875 -4.90625 L 0.796875 -4.90625 L 0.796875 -6.265625 L 2.125 -6.265625 L 2.125 -4.90625 L 3.328125 -4.90625 L 3.328125 -3.78125 L 2.125 -3.78125 L 2.125 -1.78125 C 2.125 -1.519531 2.144531 -1.332031 2.1875 -1.21875 C 2.226562 -1.101562 2.34375 -1.050781 2.53125 -1.0625 L 3.28125 -1.078125 L 3.34375 -0.03125 C 3.070312 0.03125 2.863281 0.0703125 2.71875 0.09375 C 2.570312 0.113281 2.425781 0.125 2.28125 0.125 Z M 2.28125 0.125 "/></g></g></g><g fill="#3a3a3a" fill-opacity="1"><g transform="translate(32.700973, 33.761246)"><g><path d="M 2.609375 0.125 C 1.867188 0.125 1.304688 -0.0976562 0.921875 -0.546875 C 0.546875 -1.003906 0.359375 -1.644531 0.359375 -2.46875 C 0.359375 -3.28125 0.546875 -3.910156 0.921875 -4.359375 C 1.304688 -4.804688 1.867188 -5.03125 2.609375 -5.03125 C 3.347656 -5.03125 3.90625 -4.804688 4.28125 -4.359375 C 4.664062 -3.910156 4.859375 -3.28125 4.859375 -2.46875 C 4.859375 -1.644531 4.664062 -1.003906 4.28125 -0.546875 C 3.90625 -0.0976562 3.347656 0.125 2.609375 0.125 Z M 2.609375 -1 C 2.921875 -1 3.148438 -1.113281 3.296875 -1.34375 C 3.453125 -1.570312 3.53125 -1.945312 3.53125 -2.46875 C 3.53125 -2.976562 3.453125 -3.34375 3.296875 -3.5625 C 3.148438 -3.789062 2.921875 -3.90625 2.609375 -3.90625 C 2.296875 -3.90625 2.0625 -3.789062 1.90625 -3.5625 C 1.757812 -3.34375 1.6875 -2.976562 1.6875 -2.46875 C 1.6875 -1.945312 1.757812 -1.570312 1.90625 -1.34375 C 2.0625 -1.113281 2.296875 -1 2.609375 -1 Z M 2.609375 -1 "/></g></g></g><g fill="#3a3a3a" fill-opacity="1"><g transform="translate(38.857025, 33.761246)"><g><path d="M 0.84375 -3.78125 L 0.3125 -3.78125 L 0.3125 -4.90625 L 0.84375 -4.90625 L 0.84375 -5.125 C 0.84375 -5.601562 0.890625 -5.972656 0.984375 -6.234375 C 1.078125 -6.503906 1.222656 -6.695312 1.421875 -6.8125 C 1.628906 -6.925781 1.914062 -6.984375 2.28125 -6.984375 L 3.390625 -6.890625 L 3.375 -5.796875 L 2.5625 -5.828125 C 2.425781 -5.828125 2.320312 -5.753906 2.25 -5.609375 C 2.1875 -5.472656 2.15625 -5.304688 2.15625 -5.109375 L 2.15625 -4.90625 L 3.34375 -4.90625 L 3.34375 -3.78125 L 2.15625 -3.78125 L 2.15625 0 L 0.84375 0 Z M 0.84375 -3.78125 "/></g></g></g><g clip-path="url(#62741099d3)"><path fill="#c5c6c8" d="M 46.210938 5.5625 C 46.074219 5.5625 45.960938 5.609375 45.867188 5.703125 C 45.769531 5.800781 45.722656 5.917969 45.722656 6.050781 L 45.722656 38.277344 C 45.730469 38.410156 45.777344 38.519531 45.871094 38.613281 C 45.964844 38.703125 46.078125 38.75 46.210938 38.75 C 46.339844 38.75 46.453125 38.703125 46.546875 38.613281 C 46.640625 38.519531 46.691406 38.410156 46.695312 38.277344 L 46.695312 6.050781 C 46.695312 5.917969 46.648438 5.800781 46.554688 5.703125 C 46.457031 5.609375 46.34375 5.5625 46.210938 5.5625 " fill-opacity="1" fill-rule="nonzero"/></g></svg>